<svg width="50" height="51" viewBox="0 0 50 51" fill="none" xmlns="http://www.w3.org/2000/svg">
    <path fill-rule="evenodd" clip-rule="evenodd" d="M18.7499 6.74999C18.7499 5.5994 19.6826 4.66666 20.8332 4.66666H29.1666C30.3172 4.66666 31.2499 5.5994 31.2499 6.74999V10.9167H37.4999C38.1225 10.9167 38.7125 11.1951 39.1083 11.6758C39.504 12.1565 39.664 12.789 39.5445 13.4L38.4243 19.1255L35.6335 18.5053L25.2168 16.1905C25.0739 16.1587 24.9258 16.1587 24.7829 16.1905L14.3663 18.5053L11.5755 19.1254L10.4553 13.4C10.3358 12.789 10.4958 12.1565 10.8915 11.6758C11.2873 11.1951 11.8773 10.9167 12.4999 10.9167H18.7499V6.74999ZM11.9597 21.0889L12.1487 22.055L5.79796 23.4663C5.17171 23.6054 4.6445 24.0254 4.36878 24.6046C4.09307 25.1839 4.09961 25.8579 4.38651 26.4317L8.55318 34.765C8.95421 35.5671 9.82348 36.0225 10.7112 35.8957L24.9999 33.8545L39.2886 35.8957C40.1763 36.0225 41.0456 35.5671 41.4466 34.765L45.6133 26.4317C45.9002 25.8579 45.9067 25.1839 45.631 24.6046C45.3553 24.0254 44.8281 23.6054 44.2018 23.4663L37.8511 22.055L38.0401 21.0889L35.1996 20.4577L24.9999 18.1911L14.8001 20.4577L11.9597 21.0889ZM19.3064 39.2597C22.3206 35.8151 27.6793 35.8151 30.6934 39.2598L30.7675 39.3445C31.8483 40.5796 33.6771 40.8224 35.0427 39.912C37.0804 38.5536 39.6562 38.2854 41.9301 39.1949L44.5236 40.2323C45.5919 40.6596 46.1115 41.8721 45.6842 42.9404C45.2569 44.0087 44.0445 44.5283 42.9762 44.101L40.3826 43.0636C39.3827 42.6636 38.25 42.7815 37.354 43.3789C34.2485 45.4492 30.0895 44.8971 27.6318 42.0882L27.5577 42.0035C26.2036 40.456 23.7962 40.456 22.4422 42.0035L22.368 42.0882C19.9103 44.8971 15.7513 45.4492 12.6458 43.3789C11.7498 42.7815 10.6171 42.6636 9.6172 43.0636L7.02363 44.101C5.95533 44.5283 4.7429 44.0087 4.31558 42.9404C3.88826 41.8721 4.40787 40.6596 5.47617 40.2323L8.06974 39.1949C10.3436 38.2854 12.9194 38.5536 14.9571 39.912C16.3227 40.8224 18.1515 40.5796 19.2323 39.3445L19.3064 39.2597Z" fill="#45839D"/>
</svg>
